<svg width="1280" height="720" xmlns="http://www.w3.org/2000/svg" overflow="hidden"><defs><clipPath id="a"><path d="M0 0h1280v720H0z" fill-rule="evenodd" clip-rule="evenodd"/></clipPath></defs><g clip-path="url(#a)"><path fill="#FFF" d="M0 0h1280v720H0z"/><path d="M1634-109c0-185.568-150.432-336-336-336S962-294.568 962-109s150.432 336 336 336 336-150.432 336-336z" fill="#CF1515" fill-rule="evenodd" fill-opacity=".302"/><path d="M1094 102c0-26.51-21.49-48-48-48s-48 21.49-48 48 21.49 48 48 48 48-21.49 48-48z" fill="#CF1515" fill-rule="evenodd" fill-opacity=".851"/><path d="M155.442 482.344a2.882 2.882 0 00-5.744-.488l-2.928 34.466a2.882 2.882 0 105.744.488z" fill="#CF1515" fill-rule="evenodd"/><path d="M134.103 495.156a2.882 2.882 0 00-.488 5.744l34.466 2.928a2.882 2.882 0 10.488-5.744z" fill="#CF1515" fill-rule="evenodd"/><path d="M1493 473c0-80.634-65.366-146-146-146s-146 65.366-146 146 65.366 146 146 146 146-65.366 146-146z" stroke="#CF1515" stroke-width="8" stroke-miterlimit="8" stroke-opacity=".302" fill="none"/><path d="M1508 456c0-89.47-72.53-162-162-162s-162 72.53-162 162 72.53 162 162 162 162-72.53 162-162z" stroke="#CF1515" stroke-width="8" stroke-miterlimit="8" stroke-opacity=".302" fill="none"/><path d="M1461 493c0-68.483-55.517-124-124-124s-124 55.517-124 124 55.517 124 124 124 124-55.517 124-124z" stroke="#CF1515" stroke-width="8" stroke-miterlimit="8" stroke-opacity=".302" fill="none"/><path d="M196 543.5c0-9.665-7.835-17.5-17.5-17.5s-17.5 7.835-17.5 17.5 7.835 17.5 17.5 17.5 17.5-7.835 17.5-17.5z" fill="#CF1515" fill-rule="evenodd" fill-opacity=".851"/><path d="M239 421.5c0-19.054-15.222-34.5-34-34.5s-34 15.446-34 34.5c0 19.054 15.222 34.5 34 34.5s34-15.446 34-34.5z" fill="#CF1515" fill-rule="evenodd" fill-opacity=".2"/><path d="M143.886-537.443c-27.223-60.022-97.949-86.61-157.97-59.387l-503.921 228.557c-60.022 27.223-86.61 97.95-59.387 157.971l197.165 434.707c27.223 60.022 97.949 86.61 157.97 59.387L281.665 55.235c60.022-27.223 86.61-97.95 59.387-157.971z" fill="#CF1515" fill-rule="evenodd"/><path d="M291.24 46L-115 272.375M288.555 46L-91 300.495" stroke="#CF1515" stroke-width="8" stroke-miterlimit="8" stroke-opacity=".302" fill="none"/><path fill="#A6A6A6" d="M-187 716h1654v324H-187zM-624-672h2528V0H-624z"/><path fill="#A6A6A6" d="M-610-85H0v890h-610zM1280-85h840v890h-840z"/></g></svg>