<svg width="1280" height="720" xmlns="http://www.w3.org/2000/svg" overflow="hidden"><defs><clipPath id="a"><path d="M0 0h1280v720H0z" fill-rule="evenodd" clip-rule="evenodd"/></clipPath></defs><g clip-path="url(#a)"><path fill="#FFF" d="M0 0h1280v720H0z"/><path d="M1634-109c0-185.568-150.432-336-336-336S962-294.568 962-109s150.432 336 336 336 336-150.432 336-336z" fill="#CF1515" fill-rule="evenodd" fill-opacity=".302"/><path d="M1094 102c0-26.51-21.49-48-48-48s-48 21.49-48 48 21.49 48 48 48 48-21.49 48-48z" fill="#CF1515" fill-rule="evenodd" fill-opacity=".851"/><path d="M35.422 493.025a2.882 2.882 0 00-5.744-.488l-2.928 34.466a2.882 2.882 0 105.744.488z" fill="#CF1515" fill-rule="evenodd"/><path d="M14.083 505.837a2.882 2.882 0 00-.488 5.744l34.466 2.928a2.882 2.882 0 10.488-5.744z" fill="#CF1515" fill-rule="evenodd"/><path d="M1493 496.5c0-80.91-65.366-146.5-146-146.5s-146 65.59-146 146.5S1266.366 643 1347 643s146-65.59 146-146.5z" stroke="#CF1515" stroke-width="8" stroke-miterlimit="8" stroke-opacity=".302" fill="none"/><path d="M1508 479c0-89.47-72.53-162-162-162s-162 72.53-162 162 72.53 162 162 162 162-72.53 162-162z" stroke="#CF1515" stroke-width="8" stroke-miterlimit="8" stroke-opacity=".302" fill="none"/><path d="M1461 516c0-68.483-55.517-124-124-124s-124 55.517-124 124 55.517 124 124 124 124-55.517 124-124z" stroke="#CF1515" stroke-width="8" stroke-miterlimit="8" stroke-opacity=".302" fill="none"/><path d="M92 593c0-9.389-7.611-17-17-17s-17 7.611-17 17 7.611 17 17 17 17-7.611 17-17z" fill="#CF1515" fill-rule="evenodd" fill-opacity=".851"/><path d="M99 421.5c0-19.054-15.446-34.5-34.5-34.5-19.054 0-34.5 15.446-34.5 34.5 0 19.054 15.446 34.5 34.5 34.5 19.054 0 34.5-15.446 34.5-34.5z" fill="#CF1515" fill-rule="evenodd" fill-opacity=".2"/><path d="M143.886-537.443c-27.223-60.022-97.949-86.61-157.97-59.387l-503.921 228.557c-60.022 27.223-86.61 97.95-59.387 157.971l197.165 434.707c27.223 60.022 97.949 86.61 157.97 59.387L281.665 55.235c60.022-27.223 86.61-97.95 59.387-157.971z" fill="#CF1515" fill-rule="evenodd"/><path d="M291.24 46L-115 272.375M288.555 46L-91 300.495" stroke="#CF1515" stroke-width="8" stroke-miterlimit="8" stroke-opacity=".302" fill="none"/></g></svg>