<svg width="1280" height="720" xmlns="http://www.w3.org/2000/svg" xmlns:xlink="http://www.w3.org/1999/xlink" overflow="hidden"><defs><clipPath id="clip0"><path d="M0 0 1280 0 1280 720 0 720Z" fill-rule="evenodd" clip-rule="evenodd"/></clipPath></defs><g clip-path="url(#clip0)"><rect x="0" y="0" width="1280" height="720" fill="#FFFFFF"/><path d="M0 336C-4.27773e-14 150.432 150.432-4.27773e-14 336-8.55546e-14 521.568-1.71109e-13 672 150.432 672 336 672 521.568 521.568 672 336 672 150.432 672-2.13886e-13 521.568 0 336Z" fill="#CF1515" fill-rule="evenodd" fill-opacity="0.301961" transform="matrix(-1 -8.74228e-08 -8.74228e-08 1 1634 -445)"/><path d="M0 48C-6.11104e-15 21.4903 21.4903-6.11104e-15 48-1.22221e-14 74.5097-2.44442e-14 96 21.4903 96 48 96 74.5097 74.5097 96 48 96 21.4903 96-3.05552e-14 74.5097 0 48Z" fill="#CF1515" fill-rule="evenodd" fill-opacity="0.85098" transform="matrix(-1 -8.74228e-08 -8.74228e-08 1 1094 54)"/><path d="M0 2.88248C-6.42207e-16 1.29053 1.29053 -6.42206e-16 2.88249 -6.42206e-16L2.88249 0C4.47444 -6.42206e-16 5.76498 1.29053 5.76498 2.88248L5.76493 37.4719C5.76493 39.0638 4.4744 40.3544 2.88245 40.3544L2.88249 40.3543C1.29053 40.3543 -3.21103e-16 39.0638 -3.21103e-16 37.4718Z" fill="#CF1515" fill-rule="evenodd" transform="matrix(-0.996412 -0.0846368 -0.0846368 0.996412 155.686 479.472)"/><path d="M0 2.88248C-6.42207e-16 1.29053 1.29053 -6.42206e-16 2.88249 -6.42206e-16L2.88249 0C4.47444 -6.42206e-16 5.76498 1.29053 5.76498 2.88248L5.76493 37.4719C5.76493 39.0638 4.4744 40.3544 2.88245 40.3544L2.88249 40.3543C1.29053 40.3543 -3.21103e-16 39.0638 -3.21103e-16 37.4718Z" fill="#CF1515" fill-rule="evenodd" transform="matrix(-0.0846367 0.996412 0.996412 0.0846367 131.231 494.912)"/><path d="M0 146C-1.85877e-14 65.3664 65.3664-1.85877e-14 146-3.71755e-14 226.634-7.4351e-14 292 65.3664 292 146 292 226.634 226.634 292 146 292 65.3664 292-9.29387e-14 226.634 0 146Z" stroke="#CF1515" stroke-width="8" stroke-miterlimit="8" stroke-opacity="0.301961" fill="none" fill-rule="evenodd" transform="matrix(-1 -8.74228e-08 -8.74228e-08 1 1493 327)"/><path d="M0 162C-2.06248e-14 72.5299 72.5299-2.06248e-14 162-4.12495e-14 251.47-8.2499e-14 324 72.5299 324 162 324 251.47 251.47 324 162 324 72.5299 324-1.03124e-13 251.47 0 162Z" stroke="#CF1515" stroke-width="8" stroke-miterlimit="8" stroke-opacity="0.301961" fill="none" fill-rule="evenodd" transform="matrix(-1 -8.74228e-08 -8.74228e-08 1 1508 294)"/><path d="M0 124C-1.57869e-14 55.5167 55.5167-1.57869e-14 124-3.15737e-14 192.483-6.31474e-14 248 55.5167 248 124 248 192.483 192.483 248 124 248 55.5167 248-7.89343e-14 192.483 0 124Z" stroke="#CF1515" stroke-width="8" stroke-miterlimit="8" stroke-opacity="0.301961" fill="none" fill-rule="evenodd" transform="matrix(-1 -8.74228e-08 -8.74228e-08 1 1461 369)"/><path d="M0 17.5C-2.22798e-15 7.83502 7.83502-2.22798e-15 17.5-4.45597e-15 27.165-8.91193e-15 35 7.83502 35 17.5 35 27.165 27.165 35 17.5 35 7.83502 35-1.11399e-14 27.165 0 17.5Z" fill="#CF1515" fill-rule="evenodd" fill-opacity="0.85098" transform="matrix(-1 -8.74228e-08 -8.74228e-08 1 196 526)"/><path d="M0 34.5C-4.32865e-15 15.4462 15.2223-4.39231e-15 34-8.78462e-15 52.7777-1.75692e-14 68 15.4462 68 34.5 68 53.5538 52.7777 69 34 69 15.2223 69-2.16433e-14 53.5538 0 34.5Z" fill="#CF1515" fill-rule="evenodd" fill-opacity="0.2" transform="matrix(-1 -8.74228e-08 -8.74228e-08 1 239 387)"/><path d="M0 119.335C-2.5208e-14 53.4283 53.4282 0 119.335 0L672.665 0C738.572-2.52081e-14 792 53.4283 792 119.335L792 596.665C792 662.572 738.572 716 672.665 716L119.335 716C53.4282 716 0 662.572 0 596.665Z" fill="#CF1515" fill-rule="evenodd" transform="matrix(-0.910705 0.413057 0.413057 0.910705 94.5943 -646.122)"/><path d="M0 0 406.24 226.375" stroke="#CF1515" stroke-width="8" stroke-miterlimit="8" stroke-opacity="0.301961" fill="none" fill-rule="evenodd" transform="matrix(-1 -8.74228e-08 -8.74228e-08 1 291.24 46)"/><path d="M0 0 379.555 254.495" stroke="#CF1515" stroke-width="8" stroke-miterlimit="8" stroke-opacity="0.301961" fill="none" fill-rule="evenodd" transform="matrix(-1 -8.74228e-08 -8.74228e-08 1 288.555 46)"/><rect x="-187" y="716" width="1654" height="324" fill="#A6A6A6"/><rect x="-624" y="-672" width="2528" height="672" fill="#A6A6A6"/><rect x="-610" y="-85" width="610" height="890" fill="#A6A6A6"/><rect x="1280" y="-85" width="840" height="890" fill="#A6A6A6"/></g></svg>